<?xml version="1.0" standalone="no"?>
<svg xmlns="http://www.w3.org/2000/svg" xmlns:xlink="http://www.w3.org/1999/xlink" height="1080px" width="1920px">
  <defs>
    <pattern id="doodad" width="23.09" height="40" viewBox="0 0 34.64101615137755 60" patternUnits="userSpaceOnUse" patternTransform="rotate(135)">
      <rect width="100%" height="100%" fill="rgba(0, 0, 0,0.6)"/>
      <path d="M51.96 30L51.96 50L17.32 30L34.64 20L34.64 60L17.32 50L34.64 40z" stroke-linejoin="miter" fill="#1a202c"/>
      <path d="M34.64 40L34.64 60L0 40L17.32 30L17.32 70L0 60L17.32 50z" stroke-linejoin="miter" fill="#1a202c"/>
      <path d="M17.32 30L17.32 50L-17.32 30L0 20L0 60L-17.32 50L0 40z" stroke-linejoin="miter" fill="#1a202c"/>
      <path d="M17.32 10L17.32 30L-17.32 10L0 0L0 40L-17.32 30L0 20z" stroke-linejoin="miter" fill="#1a202c"/>
      <path d="M34.64 0L34.64 20L0 0L17.32-10L17.32 30L0 20L17.32 10z" stroke-linejoin="miter" fill="#1a202c"/>
      <path d="M51.96 10L51.96 30L17.32 10L34.64 0L34.64 40L17.32 30L34.64 20z" stroke-linejoin="miter" fill="#1a202c"/>
      <path d="M34.64 40L34.64 40L34.64 40L34.64 40L34.64 40L34.64 40L34.64 40z" stroke-linejoin="miter" fill="rgba(26, 32, 44,1)"/>
      <path d="M17.32 50L17.32 50L17.32 50L17.32 50L17.32 50L17.32 50L17.32 50z" stroke-linejoin="miter" fill="rgba(26, 32, 44,1)"/>
      <path d="M0 40L0 40L0 40L0 40L0 40L0 40L0 40z" stroke-linejoin="miter" fill="rgba(26, 32, 44,1)"/>
      <path d="M0 20L0 20L0 20L0 20L0 20L0 20L0 20z" stroke-linejoin="miter" fill="rgba(26, 32, 44,1)"/>
      <path d="M17.32 10L17.32 10L17.32 10L17.32 10L17.32 10L17.32 10L17.32 10z" stroke-linejoin="miter" fill="rgba(26, 32, 44,1)"/>
      <path d="M34.64 20L34.64 20L34.64 20L34.64 20L34.64 20L34.64 20L34.64 20z" stroke-linejoin="miter" fill="rgba(26, 32, 44,1)"/>
      <path d="M17.32 30L17.32 30L17.32 30L17.32 30L17.32 30L17.32 30L17.32 30z" stroke-linejoin="miter" fill="#1a202c"/>
    </pattern>
  </defs>
  <rect fill="url(#doodad)" height="200%" width="200%"/>
</svg>
